<?xml version="1.0" encoding="UTF-8" standalone="no"?>
<!-- Created with Inkscape (http://www.inkscape.org/) -->

<svg
   version="1.1"
   id="svg1"
   width="1024"
   height="1024"
   viewBox="0 0 1024 1024"
   xmlns="http://www.w3.org/2000/svg"
   xmlns:svg="http://www.w3.org/2000/svg">
  <defs
     id="defs1">
    <linearGradient
       id="swatch7">
      <stop
         style="stop-color:#000000;stop-opacity:1;"
         offset="0"
         id="stop7" />
    </linearGradient>
  </defs>
  <g
     id="g1">
    <path
       style="fill:#006100;fill-opacity:1;stroke:none;stroke-opacity:1"
       d="m 598.5704,224.34784 c -24.456,3.22058 -46.06403,14.3424 -55.53626,38.57562 -5.36761,13.73212 -3.46374,29.56488 -3.46374,44 v 79 c 0,27.63831 -4.63617,58.24054 12.42828,82 11.28192,15.70825 29.6413,23.61285 48.57172,24.91052 7.17242,0.49158 22.96447,-3.12439 28.68212,1.69287 3.4881,2.93885 2.31788,9.36066 2.31788,13.39661 v 34 c 0.0105,6.54834 1.14776,15.50348 10,14.56555 8.70495,-0.92224 17.66699,-11.8938 24,-17.29394 16.60522,-14.15912 34.66534,-34.62146 54,-44.6991 7.84948,-4.09131 21.32183,-1.57251 30,-1.57251 26.12042,0 56.23242,4.42175 79,-11.2207 26.43707,-18.16358 27,-45.84839 27,-74.7793 v -107 c 0,-22.44067 -0.55994,-44.72394 -19.00385,-60.69983 -20.26984,-17.55749 -47.00812,-15.30017 -71.99615,-15.30017 h -109 c -18.61768,0 -38.54255,-2.00623 -57,0.42438 m 63,55.57562 h 62 c 12.54895,0 30.01971,-3.14893 41.99615,0.65277 21.06879,6.68787 4.59351,37.10071 -8.99615,41.95911 -9.3808,3.3537 -19.82343,2.23687 -29.57563,2.23687 l -53.42437,0.15125 c -11.23981,0 -24.32496,1.45441 -35,-2.7608 -13.91486,-5.49451 -29.93079,-36.57459 -7,-41.84491 m -26.99537,46.47302 c 5.00678,0 9.54096,6.88782 12.99537,9.83179 6.31109,5.37854 13.9364,8.82977 22,10.63574 16.3142,3.65387 32.99706,1.41705 51,1.66516 18.00294,0.24811 38.57885,2.10455 57,-0.28937 12.721,-1.65314 24.75067,-6.68664 33.96063,-15.74615 3.00183,-2.95282 7.05047,-8.84485 11.81097,-5.34564 4.46832,3.28448 3.2284,10.58074 3.2284,15.38116 0,17.97668 -7.02802,32.13196 -24,40.21527 -14.70264,7.0025 -32.1944,4.78473 -48,4.78473 -28.30164,0 -58.94971,3.3559 -87,-0.28937 -16.73407,-2.17468 -35.25007,-12.94562 -38.86884,-30.70678 -1.25543,-6.16181 -4.70441,-30.13654 5.87347,-30.13654 M 540.5704,666.92346 h 2 c 26.10822,-49.19257 23.76191,-77.49144 24,-86 0,-7.30499 2.33831,-18.44812 -7.00385,-20.51697 -4.79041,-1.06085 -10.11981,-0.48303 -14.99615,-0.48303 -6.2522,0 -16.34974,-1.83081 -21.77161,1.93823 -4.69135,3.26123 -3.22839,11.13684 -3.22839,16.06177 0,11.84692 3.94616,32.51001 -2.08951,42.99615 -8.9184,15.49445 -37.01194,10.00385 -51.91049,10.00385 -5.98679,0 -12.18152,0.50708 -18,-1.17053 -17.98566,-5.18573 -19.88358,-33.19538 -27.24769,-47.82947 -12.51437,-24.86884 -33.72283,-44.7818 -56.75231,-60 14.88885,-13.36389 39.2651,-20.39893 58,-26.66669 6.56018,-2.1947 22.08605,-4.33746 25.82098,-10.55786 2.06799,-3.44421 0.68561,-8.08716 0.17902,-11.77545 -1.39643,-10.16711 -2.5062,-21.1026 -5.25464,-30.99615 -1.08261,-3.8971 -3.45188,-6.70142 -7.74613,-6.72144 -10.34796,-0.0482 -23.29165,5.70349 -32.99923,9.06171 -28.71119,9.93225 -70.06781,22.81567 -87.45215,49.65588 -8.77271,13.54443 -14.48773,41.92712 -3.75849,55.90973 10.3844,13.53314 30.30112,22.05243 43.21064,33.37652 9.76116,8.56238 34.29132,29.25916 17.98147,42.18134 -9.89325,7.83832 -25.02707,7.79865 -36.98147,8.62189 -27.18699,1.87231 -56.01258,2.6662 -83,-1.67896 -11.75957,-1.89343 -24.77198,-5.29053 -32.21143,-15.42517 -7.25723,-9.88641 -6.63289,-22.51684 -4.33949,-33.98535 1.08897,-5.44556 5.41247,-14.82483 1.80478,-19.85187 -2.95812,-4.12189 -8.83327,-3.14813 -13.25386,-3.14813 -9.73668,0 -25.76268,-3.77332 -29.25,8.00073 -3.7264,12.5813 -5.46579,25.94263 -5.76467,38.99927 -0.29629,12.94373 -0.48314,25.74176 4.46759,38 9.49452,23.50891 30.9906,35.5116 54.54708,41.37341 39.49359,9.82764 84.94433,9.41443 125,3.20221 12.29184,-1.90631 24.52243,-4.53363 36,-9.42596 5.38687,-2.29614 13.4046,-9.27283 19,-9.61572 3.36428,-0.20618 6.44577,3.49279 9,5.24536 5.40017,3.70532 11.7384,6.61096 18,8.49926 22.83062,6.88495 58.05587,7.49671 81,0.68518 9.97943,-2.96264 20.05188,-8.42645 25,-17.96374 m 230,-286 1,1 -1,-1 m -168.89124,8.86731 c 4.65985,-3.1e-4 9.2915,6.43323 12.89124,8.91199 6.86425,4.72668 14.86511,7.88665 23,9.55481 17.68994,3.62744 37.02923,1.66589 55,1.66589 18.2857,0 37.87414,1.9848 56,-0.42438 13.21478,-1.75641 25.63183,-4.79138 36,-13.75616 2.42431,-2.09619 7.53442,-8.39978 11.14196,-5.03321 3.1034,2.89612 1.9364,10.41541 1.84339,14.21375 -0.40894,16.69409 -9.6626,32.05469 -24.98535,39.20374 -13.76453,6.42205 -31.21766,3.79626 -46,3.79626 -29.54749,0 -60.61097,2.7699 -90,-0.17053 -17.15583,-1.71649 -32.90448,-13.97638 -37.51001,-30.82947 -1.20099,-4.39484 -4.8996,-27.1322 2.61877,-27.13269 M 424.5704,700.3772 c -33.91358,4.50738 -29.10254,57.33166 5,53.25305 34.45013,-4.12018 29.35553,-57.81922 -5,-53.25305 m 65,0.0139 c -34.01761,3.38153 -31.18934,55.92816 3,53.34723 34.65716,-2.61627 31.49395,-56.77612 -3,-53.34723 z m 209,-118.46764 c 0,-7.30499 1.88576,-16.48459 -7.4564,-18.55344 -4.79041,-1.06085 -10.57236,-1.38812 -15.4487,-1.38812 -6.2522,0 -15.44464,-2.88925 -20.86651,0.87979 -4.69135,3.26123 -3.22839,11.13684 -3.22839,16.06177 0,11.84692 3.94616,32.51001 -2.08951,42.99615 -8.9184,15.49445 -37.09194,11.12385 -51.91049,12.00385 -5.97626,0.3549 -33.67757,0.66042 -39.49605,-1.01719 -17.98566,-5.18573 -28.3152,40.3534 -23.48198,43.19348 2.64428,1.55382 10.98306,5.44386 13.97803,6.60301 6.10143,2.36145 8.35095,1.99606 14.16,2.97926 23.51178,3.97945 62.05587,3.49671 85,-3.31482 9.97943,-2.96264 21.47188,-4.70145 38.47,-28.50124 12.07822,-18.49507 12.13191,-63.43394 12.37,-71.9425 z m -122,121.45374 c -33.91358,4.50738 -29.10254,57.33166 5,53.25305 34.45013,-4.12018 29.35553,-57.81922 -5,-53.25305 m 67,0.0139 c -34.01761,3.38153 -31.18934,55.92816 3,53.34723 34.65716,-2.61627 31.49395,-56.77612 -3,-53.34723 z m -35,43.9861 c -33.91358,4.50738 -29.10254,57.33166 5,53.25305 34.45013,-4.12018 29.35553,-57.81922 -5,-53.25305"
       id="path1" />
  </g>
</svg>
