<?xml version="1.0" encoding="UTF-8" standalone="no"?>
<!-- Created with Inkscape (http://www.inkscape.org/) -->

<svg
   version="1.1"
   id="svg1"
   width="1024"
   height="1024"
   viewBox="0 0 1024 1024"
   xmlns="http://www.w3.org/2000/svg"
   xmlns:svg="http://www.w3.org/2000/svg">
  <defs
     id="defs1" />
  <g
     id="g1">
    <path
       style="fill:#09af58;stroke:none;stroke-width:1.1271"
       d="m 354.99159,190.08551 c -22.58257,2.96511 -43.33674,6.22093 -64.24475,16.02294 -15.21789,7.13443 -28.85031,16.4101 -41.70274,27.17824 -33.60545,28.15565 -56.36417,69.68227 -62.63497,112.98752 -5.92095,40.88919 -1.60977,84.94346 -1.60977,126.2353 0,56.99812 -5.37469,113.84007 25.71025,164.55672 17.84514,29.11531 45.5494,55.22526 76.85592,69.38894 12.12019,5.48334 24.26989,10.09424 37.19433,13.3103 4.66983,1.16205 13.89917,1.24378 17.35353,4.76322 4.33731,4.4191 1.80719,18.31607 1.80719,24.12053 0,21.87225 -4.15949,48.56839 0.76703,69.88025 2.76228,11.94951 13.27316,18.4827 25.15629,16.6665 13.45235,-2.05615 26.92432,-17.91818 37.19432,-26.13376 23.36733,-18.69299 46.51541,-37.65661 69.88026,-56.35505 9.37291,-7.50102 20.28486,-20.38466 31.55882,-24.63709 7.32911,-2.76444 18.16535,-0.83577 25.92332,-0.83577 h 55.22794 c 28.97325,0 59.1814,2.42515 87.91387,-1.4454 49.03942,-6.6061 94.15089,-34.01747 124.35845,-72.94325 39.51886,-50.92413 36.81697,-108.16536 36.81697,-169.06513 0,-51.11345 7.61627,-109.18686 -5.5051,-158.92122 -8.89124,-33.7011 -28.08926,-62.82431 -53.10414,-86.7424 C 767.68847,226.43259 753.20635,216.79679 738.20588,209.05925 689.96116,184.17373 635.18869,189.60719 582.66596,189.60719 H 431.63444 c -25.0028,0 -51.85867,-2.77592 -76.64285,0.47832 m 34.94012,570.96182 v -47.33824 c 0,-8.56125 1.1894,-17.4433 -4.10053,-24.79188 -11.26227,-15.64506 -40.62069,-12.44359 -57.89002,-17.39267 -27.20554,-7.7967 -51.9209,-25.80713 -69.13058,-47.98352 -26.36246,-33.97062 -26.67299,-72.97124 -26.67299,-113.83718 v -94.67648 c 0,-31.23714 -2.20168,-62.65563 9.08898,-92.42227 13.66392,-36.02354 44.50583,-64.96445 81.07909,-77.0142 35.22544,-11.60561 76.09978,-6.39126 112.71009,-6.39126 h 172.44643 c 51.56837,0 98.29284,-1.93962 139.7605,34.13918 59.39788,51.67884 43.95694,139.0853 43.95694,209.31461 0,51.67913 5.64722,106.09415 -31.75103,147.65021 -55.5501,61.72583 -139.00165,48.46534 -213.95696,48.46534 -15.76689,0 -34.11124,-2.60078 -49.59244,0.38351 -12.10924,2.33435 -23.40186,15.79841 -32.68592,23.2856 -24.07758,19.4176 -47.46506,41.54837 -73.26156,58.60925 M 711.15457,325.40462 c -18.29015,2.51355 -36.16843,13.33968 -52.97285,20.39127 -10.65663,4.47181 -24.37432,7.94791 -33.66258,14.92192 -5.4594,4.09915 -7.05305,27.02668 2.22551,27.21043 7.45157,0.14756 17.69984,-6.31132 24.67446,-8.91156 15.31176,-5.70842 30.67147,-11.14326 46.21114,-16.20819 6.74382,-2.19807 16.49588,-3.20546 22.18374,-7.61398 7.42192,-5.75252 2.53804,-31.32872 -8.65942,-29.78989 m -201.75451,3.3813 c -20.09908,2.78542 -41.02074,13.83526 -59.732,21.32005 -9.887,3.95497 -22.44584,6.75862 -31.40838,12.41731 -6.44626,4.06998 -8.93725,24.6186 1.0384,26.0146 7.50959,1.05095 17.78895,-5.65111 24.73447,-8.06278 16.02263,-5.56355 32.16385,-11.15929 48.46534,-15.83941 6.98549,-2.00551 17.79063,-2.82511 23.4117,-7.66881 6.87618,-5.92526 5.42892,-29.83543 -6.50953,-28.18096 M 316.67016,458.9843 c -22.54553,-14.68203 -30.63436,5.82599 -31.51445,25.92332 -1.12539,25.69809 4.57175,48.44188 28.13314,62.57845 20.42265,12.25337 49.02669,12.93731 72.13446,12.93731 33.75235,0 84.25337,4.18769 104.68643,-29.30463 4.11154,-6.73928 5.67748,-14.88565 7.11744,-22.54201 1.45907,-7.75791 1.69695,-16.96451 0.56793,-24.79622 -4.0627,-28.18178 -32.06301,-33.45654 -46.99995,-52.97374 17.58917,-3.02667 35.85562,-11.17938 52.97374,-16.5221 6.48406,-2.02375 16.15453,-3.19639 20.83575,-8.58376 6.19183,-7.12589 2.73533,-23.48055 -0.54794,-31.24919 -21.8427,5.17618 -44.03425,13.52501 -65.37185,20.66349 -10.74189,3.59367 -25.02867,7.11435 -33.69126,14.71671 -6.98697,6.13184 -12.3482,26.45385 -11.09098,35.62716 0.9327,6.8054 8.07301,10.46531 13.22342,13.90088 11.64521,7.76802 22.87373,15.45616 32.66852,25.54765 7.77087,8.00623 11.49001,18.6059 1.12363,26.56598 -13.48287,10.35318 -41.43069,7.24704 -57.46127,7.24704 -21.06576,0 -42.34388,1.02419 -63.11765,-3.16474 -10.1157,-2.03977 -21.8245,-8.15126 -25.91289,-18.25017 -4.52186,-11.16967 -0.30647,-27.16489 2.24378,-38.32143 m 289.66492,59.73634 c -1.66087,-11.29701 -4.66333,-23.37668 -9.36814,-33.81302 -3.31395,-7.3512 -7.48664,-14.51019 -13.21908,-20.24262 -15.18367,-15.18366 -41.55524,-15.89437 -55.93932,1.09842 -18.87527,22.29849 -22.20921,73.61308 7.51918,87.53296 11.64373,5.45203 26.7584,5.96495 39.44853,5.99989 -12.36839,15.18794 -33.63678,29.68298 -54.10084,30.28561 -6.50849,0.19166 -12.80443,-2.30071 -19.16071,-3.23518 0,8.9165 -1.26744,21.6682 5.23981,28.86021 5.21648,5.76539 16.8525,6.04428 24.06481,6.07909 21.58814,0.10403 41.58977,-5.17343 55.83146,-22.5412 5.95409,-7.26094 10.62167,-16.03532 13.97573,-24.79621 1.59579,-4.16816 2.36737,-10.889 6.98611,-12.84513 5.12837,-2.17193 12.39372,-0.35414 17.88317,-1.00189 21.25071,-2.5073 44.82819,-0.60765 64.24475,-11.30224 15.49316,-8.53368 20.28135,-24.67357 20.28782,-41.34969 0.0119,-31.008 -16.87219,-58.08436 -45.08404,-72.13446 v -2.2542 c 19.99318,-4.62549 58.59666,-10.14542 59.69197,-34.94013 0.21492,-4.86454 1.91045,-17.03116 -2.84561,-20.21125 -4.20489,-2.81155 -17.21037,2.55311 -21.90623,3.7274 -21.87307,5.46972 -49.07023,14.47724 -66.37719,29.47771 -4.54142,3.93619 -5.6862,9.58717 -7.0148,15.18366 -1.48228,6.24392 -4.90568,15.08461 -2.57079,21.41403 2.32307,6.2975 9.84708,10.0079 15.09933,13.52699 10.04884,6.7329 19.6186,13.98165 28.17752,22.54113 14.70549,14.70645 12.93923,30.22445 -10.1439,31.51879 -6.75793,0.37897 -13.53519,0.80556 -20.28782,1.26799 -10.10827,0.69226 -20.30116,1.94421 -30.43172,2.15334 m -30.43173,0 c -9.69242,-1.79933 -24.11365,1.42023 -32.51896,-4.51886 -7.1032,-5.01905 -0.61267,-17.91171 5.51724,-21.04528 15.65958,-8.00501 26.73866,13.21695 27.00172,25.56414 z"
       id="path1" />
  </g>
</svg>
